<mxfile host="app.diagrams.net" modified="2024-04-15T11:20:54.945Z" agent="Mozilla/5.0 (Windows NT 10.0; Win64; x64) AppleWebKit/537.36 (KHTML, like Gecko) Chrome/123.0.0.0 Safari/537.36" etag="lWnw2XdJcBZ4EDGlXWns" version="24.2.5" type="device">
  <diagram name="Page-1" id="a7s1mC4PnU82PC-X18r7">
    <mxGraphModel dx="1112" dy="828" grid="0" gridSize="10" guides="1" tooltips="1" connect="1" arrows="1" fold="1" page="0" pageScale="1" pageWidth="827" pageHeight="1169" math="0" shadow="0">
      <root>
        <mxCell id="0" />
        <mxCell id="1" parent="0" />
        <mxCell id="IPKsLXc-zjMilTqvsr9f-1" value="Source Code" style="rounded=0;whiteSpace=wrap;html=1;" vertex="1" parent="1">
          <mxGeometry x="30" y="78" width="131" height="66" as="geometry" />
        </mxCell>
        <mxCell id="IPKsLXc-zjMilTqvsr9f-2" value="Source Code" style="rounded=0;whiteSpace=wrap;html=1;" vertex="1" parent="1">
          <mxGeometry x="30" y="194" width="131" height="66" as="geometry" />
        </mxCell>
        <mxCell id="IPKsLXc-zjMilTqvsr9f-4" value="Compiler" style="rounded=0;whiteSpace=wrap;html=1;" vertex="1" parent="1">
          <mxGeometry x="216" y="78" width="131" height="66" as="geometry" />
        </mxCell>
        <mxCell id="IPKsLXc-zjMilTqvsr9f-5" value="Machine Code" style="rounded=0;whiteSpace=wrap;html=1;" vertex="1" parent="1">
          <mxGeometry x="402" y="78" width="131" height="66" as="geometry" />
        </mxCell>
        <mxCell id="IPKsLXc-zjMilTqvsr9f-6" value="Interpreter" style="rounded=0;whiteSpace=wrap;html=1;" vertex="1" parent="1">
          <mxGeometry x="216" y="194" width="131" height="66" as="geometry" />
        </mxCell>
        <mxCell id="IPKsLXc-zjMilTqvsr9f-7" value="Output" style="rounded=0;whiteSpace=wrap;html=1;" vertex="1" parent="1">
          <mxGeometry x="588" y="152" width="131" height="66" as="geometry" />
        </mxCell>
        <mxCell id="IPKsLXc-zjMilTqvsr9f-8" value="" style="endArrow=classic;html=1;rounded=0;fontSize=12;startSize=8;endSize=8;curved=1;exitX=1;exitY=0.5;exitDx=0;exitDy=0;entryX=0;entryY=0.5;entryDx=0;entryDy=0;" edge="1" parent="1" source="IPKsLXc-zjMilTqvsr9f-1" target="IPKsLXc-zjMilTqvsr9f-4">
          <mxGeometry width="50" height="50" relative="1" as="geometry">
            <mxPoint x="212" y="225" as="sourcePoint" />
            <mxPoint x="262" y="175" as="targetPoint" />
          </mxGeometry>
        </mxCell>
        <mxCell id="IPKsLXc-zjMilTqvsr9f-9" value="" style="endArrow=classic;html=1;rounded=0;fontSize=12;startSize=8;endSize=8;curved=1;entryX=0;entryY=0.5;entryDx=0;entryDy=0;" edge="1" parent="1" source="IPKsLXc-zjMilTqvsr9f-4" target="IPKsLXc-zjMilTqvsr9f-5">
          <mxGeometry width="50" height="50" relative="1" as="geometry">
            <mxPoint x="347" y="161" as="sourcePoint" />
            <mxPoint x="417.71067811865476" y="111" as="targetPoint" />
          </mxGeometry>
        </mxCell>
        <mxCell id="IPKsLXc-zjMilTqvsr9f-10" value="" style="endArrow=classic;html=1;rounded=0;fontSize=12;startSize=8;endSize=8;curved=1;entryX=0;entryY=0.5;entryDx=0;entryDy=0;" edge="1" parent="1" source="IPKsLXc-zjMilTqvsr9f-2" target="IPKsLXc-zjMilTqvsr9f-6">
          <mxGeometry width="50" height="50" relative="1" as="geometry">
            <mxPoint x="161" y="277" as="sourcePoint" />
            <mxPoint x="231.71067811865476" y="227" as="targetPoint" />
          </mxGeometry>
        </mxCell>
        <mxCell id="IPKsLXc-zjMilTqvsr9f-11" value="" style="endArrow=classic;html=1;rounded=0;fontSize=12;startSize=8;endSize=8;curved=1;entryX=0;entryY=0.5;entryDx=0;entryDy=0;" edge="1" parent="1" source="IPKsLXc-zjMilTqvsr9f-6" target="IPKsLXc-zjMilTqvsr9f-7">
          <mxGeometry width="50" height="50" relative="1" as="geometry">
            <mxPoint x="347" y="277" as="sourcePoint" />
            <mxPoint x="417.71067811865476" y="227" as="targetPoint" />
          </mxGeometry>
        </mxCell>
        <mxCell id="IPKsLXc-zjMilTqvsr9f-12" value="" style="endArrow=classic;html=1;rounded=0;fontSize=12;startSize=8;endSize=8;curved=1;entryX=0;entryY=0.5;entryDx=0;entryDy=0;exitX=1;exitY=0.5;exitDx=0;exitDy=0;" edge="1" parent="1" source="IPKsLXc-zjMilTqvsr9f-5" target="IPKsLXc-zjMilTqvsr9f-7">
          <mxGeometry width="50" height="50" relative="1" as="geometry">
            <mxPoint x="533" y="161" as="sourcePoint" />
            <mxPoint x="603.7106781186548" y="111" as="targetPoint" />
          </mxGeometry>
        </mxCell>
        <mxCell id="IPKsLXc-zjMilTqvsr9f-13" value="Programming" style="text;html=1;align=center;verticalAlign=middle;whiteSpace=wrap;rounded=0;fontSize=16;" vertex="1" parent="1">
          <mxGeometry x="-82" y="96" width="60" height="30" as="geometry" />
        </mxCell>
        <mxCell id="IPKsLXc-zjMilTqvsr9f-14" value="Scripting" style="text;html=1;align=center;verticalAlign=middle;whiteSpace=wrap;rounded=0;fontSize=16;" vertex="1" parent="1">
          <mxGeometry x="-76" y="212" width="60" height="30" as="geometry" />
        </mxCell>
      </root>
    </mxGraphModel>
  </diagram>
</mxfile>
